#!OML:ASF E:\EmotionMaleHayes\Project 1\Capture day 1\Session 1\Male1.ASF
:FULLY-SPECIFIED
:DEGREES
388
root 17.0388 16.663 0.595203 576.985 95.9933 581.68
lowerback 4.83375 4.18903 -4.38459
upperback 3.00693 5.5414 -3.50011
thorax 0.340544 2.80267 -1.40561
lowerneck -22.1785 -0.625345 2.94378
upperneck 31.9932 -1.90444 1.26572
head 14.8129 -0.0123737 -0.280551
rclavicle 6.10269e-014 -4.21423e-014
rhumerus -29.8863 6.24937 -91.7222
rradius 32.3437
rwrist 0.411169
rhand -13.0716 -29.1258
rfingers 7.12502
rthumb 13.0241 -58.6992
lclavicle 6.10269e-014 -4.21423e-014
lhumerus -33.3366 9.37361 77.9208
lradius 20.4581
lwrist -16.125
lhand -14.5787 -23.4412
lfingers 7.12502
lthumb 11.5711 6.21935
rfemur 14.6797 3.39003 15.0369
rtibia 39.9201
rfoot 7.84427 1.93634
rtoes 17.9459
lfemur -14.7585 1.39975 -27.1214
ltibia 30.8102
lfoot -14.4372 8.0221
ltoes 0.0380199
389
root 17.1776 16.6733 0.569729 586.549 96.9179 591.426
lowerback 4.92929 4.09811 -5.83552
upperback 3.07236 5.38191 -3.8741
thorax 0.269309 2.71709 -0.993939
lowerneck -21.9223 -0.553687 2.88873
upperneck 31.8176 -1.78383 1.3225
head 14.6786 0.0331297 -0.225158
rclavicle 1.71452e-014 -2.46493e-014
rhumerus -30.3958 6.37495 -91.8768
rradius 31.857
rwrist 0.333352
rhand -12.7157 -29.7833
rfingers 7.12502
rthumb 13.3672 -59.3345
lclavicle 1.71452e-014 -2.46493e-014
lhumerus -33.018 6.6664 79.3767
lradius 21.545
lwrist -13.8002
lhand -14.8322 -23.5939
lfingers 7.12502
lthumb 11.3266 6.0802
rfemur 12.663 3.12266 12.984
rtibia 43.5753
rfoot 10.1428 1.67077
rtoes 20.9045
lfemur -13.3172 1.55857 -28.8365
ltibia 29.3917
lfoot -14.2364 8.03065
ltoes -0.617606
390
root 17.3123 16.6904 0.549298 593.672 97.9258 598.637
lowerback 4.84897 3.93263 -7.36839
upperback 3.19056 5.14091 -4.15381
thorax 0.347823 2.58432 -0.422328
lowerneck -22.0435 -0.422043 2.84966
upperneck 31.8652 -1.54399 1.20708
head 14.7274 0.112163 -0.221805
rclavicle -2.71838e-014 -8.74653e-015
rhumerus -30.8436 6.5027 -91.9344
rradius 31.3764
rwrist 0.401263
rhand -13.0285 -29.1777
rfingers 7.12502
rthumb 13.0657 -58.7484
lclavicle -2.71838e-014 -8.74653e-015
lhumerus -32.569 5.38156 80.3029
lradius 22.4099
lwrist -12.7763
lhand -15.0072 -23.9807
lfingers 7.12502
lthumb 11.1578 5.70268
rfemur 10.5532 2.84026 11.0475
rtibia 47.0833
rfoot 12.2868 1.13992
rtoes 22.5951
lfemur -11.9833 1.74347 -30.4525
ltibia 27.8815
lfoot -13.9544 7.89583
ltoes 0.0911446
391
root 17.4403 16.7106 0.536729 597.45 98.7017 602.544
lowerback 4.87491 3.7666 -8.58909
upperback 3.34576 4.90053 -4.27467
thorax 0.428363 2.44988 0.134019
lowerneck -22.5175 -0.183687 2.95413
upperneck 32.0347 -1.16386 0.917079
head 14.9096 0.244288 -0.289115
rclavicle 2.33572e-015 -1.19271e-014
rhumerus -31.1957 6.55757 -91.8893
rradius 30.9029
rwrist 0.797234
rhand -13.256 -28.3343
rfingers 7.12502
rthumb 12.8464 -57.9189
lclavicle 2.33572e-015 -1.19271e-014
lhumerus -31.9928 4.36283 81.144
lradius 23.2641
lwrist -11.8342
lhand -15.0345 -23.994
lfingers 7.12502
lthumb 11.1315 5.69079
rfemur 8.47165 2.67785 9.71722
rtibia 50.3599
rfoot 14.5494 0.260787
rtoes 23.374
lfemur -10.6632 2.05086 -31.5646
ltibia 26.4318
lfoot -13.5996 7.7451
ltoes 0.428168
392
root 17.5634 16.728 0.526568 599.259 99.2074 604.472
lowerback 5.02893 3.68532 -9.31416
upperback 3.43398 4.76473 -4.36301
thorax 0.401762 2.37631 0.436027
lowerneck -22.5294 -0.104367 2.90435
upperneck 31.8917 -1.01189 0.848548
head 14.8478 0.284609 -0.281681
rclavicle 1.2424e-015 1.35174e-014
rhumerus -31.526 6.34285 -91.7623
rradius 30.4373
rwrist 1.31367
rhand -12.8708 -28.1813
rfingers 7.12502
rthumb 13.2177 -57.7422
lclavicle 1.2424e-015 1.35174e-014
lhumerus -31.557 2.49315 82.1199
lradius 24.2922
lwrist -10.4078
lhand -15.1596 -23.9479
lfingers 7.12502
lthumb 11.0108 5.74333
rfemur 6.44911 2.51213 8.85636
rtibia 53.3639
rfoot 16.7302 -1.21041
rtoes 25.4722
lfemur -9.43754 2.3143 -32.2524
ltibia 25.157
lfoot -13.3549 7.67425
ltoes 0.0598887
393
root 17.6831 16.7405 0.517357 600.762 99.4574 606.087
lowerback 5.2305 3.60022 -9.76464
upperback 3.47511 4.61676 -4.39574
thorax 0.317206 2.30119 0.642705
lowerneck -22.4885 -0.0573119 3.03489
upperneck 31.8331 -0.932303 0.669876
head 14.8104 0.304923 -0.363621
rclavicle 3.57812e-014 -3.81667e-014
rhumerus -31.8165 5.74644 -91.4706
rradius 29.885
rwrist 2.24075
rhand -12.2788 -28.2392
rfingers 7.12502
rthumb 13.7884 -57.7623
lclavicle 3.57812e-014 -3.81667e-014
lhumerus -31.2997 0.524081 83.0266
lradius 25.4021
lwrist -9.1153
lhand -15.2463 -23.9988
lfingers 7.12502
lthumb 10.9272 5.69682
rfemur 4.61591 2.24625 8.34386
rtibia 56.1075
rfoot 16.1233 -2.89191
rtoes 23.641
lfemur -8.3289 2.3153 -32.6739
ltibia 24.1057
lfoot -13.2254 7.68095
ltoes -0.783955
394
root 17.8073 16.7472 0.501935 602.093 99.7531 607.51
lowerback 5.26386 3.47708 -10.2262
upperback 3.55701 4.44526 -4.43673
thorax 0.373832 2.20838 0.86218
lowerneck -22.3876 0.0133741 3.10513
upperneck 31.7237 -0.827724 0.592737
head 14.7388 0.341846 -0.38848
rclavicle 5.04416e-014 -3.65764e-014
rhumerus -32.0718 5.1892 -91.2034
rradius 29.3591
rwrist 3.27046
rhand -11.6104 -28.472
rfingers 7.12502
rthumb 14.4324 -57.9502
lclavicle 5.04416e-014 -3.65764e-014
lhumerus -30.9337 -1.00967 83.724
lradius 26.4245
lwrist -8.43145
lhand -15.2835 -23.8054
lfingers 7.12502
lthumb 10.8913 5.89219
rfemur 2.87055 1.93051 7.73724
rtibia 58.6523
rfoot 15.0725 -4.06268
rtoes 23.0033
lfemur -7.22711 2.38451 -33.1538
ltibia 23.0678
lfoot -13.1061 7.65114
ltoes -2.8788
395
root 17.9325 16.751 0.488244 603.06 100.068 608.523
lowerback 5.18771 3.32472 -10.6969
upperback 3.63454 4.25159 -4.50793
thorax 0.493973 2.10199 1.06352
lowerneck -22.1494 0.158971 3.05491
upperneck 31.4905 -0.648148 0.7675
head 14.5856 0.429776 -0.275374
rclavicle 1.51076e-014 -9.54166e-015
rhumerus -32.3352 4.97866 -91.1687
rradius 28.7666
rwrist 3.87895
rhand -11.1591 -28.5926
rfingers 7.12502
rthumb 14.8672 -58.0392
lclavicle 1.51076e-014 -9.54166e-015
lhumerus -30.4361 -2.24524 84.1578
lradius 27.2268
lwrist -8.1147
lhand -15.4133 -24.0616
lfingers 7.12502
lthumb 10.7661 5.64253
rfemur 1.11609 1.61797 7.13466
rtibia 60.9586
rfoot 13.7229 -4.39374
rtoes 23.1857
lfemur -6.23785 2.613 -33.6028
ltibia 22.155
lfoot -13.1936 7.45401
ltoes -3.81832
396
root 18.0577 16.7776 0.473173 604.313 100.199 609.833
lowerback 5.21275 3.14962 -10.9701
upperback 3.69657 4.01621 -4.53339
thorax 0.555686 1.97856 1.20086
lowerneck -21.9805 0.30412 3.04346
upperneck 31.3737 -0.436668 0.807354
head 14.4993 0.520316 -0.218559
rclavicle -1.65488e-014 4.6118e-014
rhumerus -32.737 4.76694 -91.0985
rradius 28.2446
rwrist 4.30236
rhand -11.1714 -28.2887
rfingers 7.12502
rthumb 14.8553 -57.7362
lclavicle -1.65488e-014 4.6118e-014
lhumerus -29.871 -3.44458 84.566
lradius 27.7846
lwrist -7.73436
lhand -15.4814 -24.699
lfingers 7.12502
lthumb 10.7004 5.00853
rfemur -0.940001 1.36085 6.72436
rtibia 63.0669
rfoot 12.3224 -4.03979
rtoes 21.0242
lfemur -5.25699 2.73242 -33.8993
ltibia 21.3166
lfoot -13.3679 7.21514
ltoes -2.88755
397
root 18.1731 16.7787 0.454251 605.637 100.304 611.259
lowerback 5.36878 2.99549 -11.1573
upperback 3.76428 3.7913 -4.52809
thorax 0.553455 1.86356 1.31539
lowerneck -22.0808 0.389334 3.09528
upperneck 31.4302 -0.273584 0.622568
head 14.5476 0.568777 -0.272673
rclavicle 2.94201e-014 -4.77083e-014
rhumerus -33.2229 4.34234 -90.844
rradius 27.9271
rwrist 4.75654
rhand -11.2514 -27.9329
rfingers 7.12502
rthumb 14.7783 -57.386
lclavicle 2.94201e-014 -4.77083e-014
lhumerus -29.2619 -4.59281 85.0163
lradius 28.2817
lwrist -7.71548
lhand -15.843 -25.2108
lfingers 7.12502
lthumb 10.3516 4.5144
rfemur -2.43278 0.737138 6.31011
rtibia 64.822
rfoot 10.212 -2.97956
rtoes 19.7441
lfemur -4.30719 2.80331 -34.2006
ltibia 20.5462
lfoot -13.4387 7.03331
ltoes -2.43747
398
root 18.2923 16.7735 0.438437 606.883 100.378 612.618
lowerback 5.47637 2.80737 -11.3888
upperback 3.8353 3.52546 -4.49272
thorax 0.583788 1.72483 1.49124
lowerneck -22.1443 0.405744 3.14228
upperneck 31.4619 -0.224196 0.478478
head 14.5756 0.573361 -0.330847
rclavicle -6.90777e-015 3.26007e-014
rhumerus -33.6879 4.04794 -90.6256
rradius 27.6515
rwrist 4.95461
rhand -11.4044 -27.7908
rfingers 7.12502
rthumb 14.6309 -57.2547
lclavicle -6.90777e-015 3.26007e-014
lhumerus -28.7792 -5.57948 85.3528
lradius 28.9524
lwrist -8.09276
lhand -16.5103 -25.7807
lfingers 7.12502
lthumb 9.70788 3.97561
rfemur -3.8093 0.180113 6.00616
rtibia 66.3446
rfoot 8.02465 -1.53927
rtoes 18.1608
lfemur -3.32896 2.87916 -34.4452
ltibia 19.8
lfoot -13.5457 6.81666
ltoes -2.20587
399
root 18.4139 16.7747 0.422488 608.648 100.355 614.459
lowerback 5.56311 2.59975 -11.4765
upperback 3.89182 3.24125 -4.48086
thorax 0.622092 1.57956 1.56712
lowerneck -22.0549 0.499574 3.31049
upperneck 31.4211 -0.0815909 0.2879
head 14.5394 0.624943 -0.411766
rclavicle -3.68249e-014 2.22639e-014
rhumerus -34.1536 3.61967 -90.4018
rradius 27.3981
rwrist 5.0031
rhand -11.6924 -27.8357
rfingers 7.12502
rthumb 14.3534 -57.3195
lclavicle -3.68249e-014 2.22639e-014
lhumerus -28.3503 -6.86329 85.6757
lradius 29.7249
lwrist -7.83906
lhand -16.5546 -26.0792
lfingers 7.12502
lthumb 9.66508 3.67907
rfemur -5.25677 -0.322435 5.83436
rtibia 67.6519
rfoot 6.21921 -0.356418
rtoes 17.5558
lfemur -2.45696 2.90578 -34.6168
ltibia 19.2151
lfoot -13.6005 6.59286
ltoes -3.61611
400
root 18.5317 16.7806 0.407679 610.135 100.248 616.039
lowerback 5.73693 2.45242 -11.4143
upperback 3.9455 3.02812 -4.45588
thorax 0.606328 1.47418 1.56683
lowerneck -22.0716 0.606827 3.31177
upperneck 31.4358 0.0667427 0.313154
head 14.5528 0.692018 -0.373812
rclavicle -3.8266e-015 4.85035e-014
rhumerus -34.5766 2.89012 -90.0348
rradius 27.1223
rwrist 5.27646
rhand -11.8532 -27.9119
rfingers 7.12502
rthumb 14.1985 -57.4066
lclavicle -3.8266e-015 4.85035e-014
lhumerus -27.7625 -8.66495 86.115
lradius 30.3058
lwrist -6.78693
lhand -16.25 -26.1267
lfingers 7.12502
lthumb 9.95894 3.61773
rfemur -6.75452 -0.757252 5.86073
rtibia 68.7966
rfoot 4.73845 0.481476
rtoes 18.524
lfemur -1.56288 2.84956 -34.6671
ltibia 18.5631
lfoot -13.526 6.49904
ltoes -6.35385
401
root 18.6504 16.7833 0.39504 611.31 100.347 617.316
lowerback 5.79963 2.3287 -11.6313
upperback 4.07643 2.86377 -4.42258
thorax 0.719858 1.38145 1.73027
lowerneck -22.0641 0.719372 3.25638
upperneck 31.299 0.228612 0.3649
head 14.4927 0.756214 -0.314093
rclavicle -1.13804e-014 3.18055e-014
rhumerus -34.899 2.27842 -89.6326
rradius 26.8523
rwrist 5.37854
rhand -12.154 -27.7661
rfingers 7.12502
rthumb 13.9086 -57.281
lclavicle -1.13804e-014 3.18055e-014
lhumerus -27.0115 -10.4349 86.5601
lradius 30.7572
lwrist -5.90652
lhand -16.4976 -26.4095
lfingers 7.12502
lthumb 9.7201 3.34619
rfemur -8.25796 -1.09161 5.69254
rtibia 69.7981
rfoot 3.13192 1.35657
rtoes 19.444
lfemur -0.654389 2.7661 -34.9062
ltibia 17.8796
lfoot -13.5416 6.47349
ltoes -7.07664
402
root 18.7658 16.7822 0.382216 612.892 100.555 618.891
lowerback 5.76206 2.17341 -12.0099
upperback 4.17051 2.66344 -4.40944
thorax 0.853031 1.26776 1.96558
lowerneck -21.993 0.849614 3.37584
upperneck 31.2029 0.424699 0.217652
head 14.4383 0.82917 -0.359368
rclavicle -3.06128e-014 1.82882e-014
rhumerus -35.2943 1.69621 -89.2418
rradius 26.7244
rwrist 5.27118
rhand -12.3346 -27.8833
rfingers 7.12502
rthumb 13.7345 -57.41
lclavicle -3.06128e-014 1.82882e-014
lhumerus -26.3331 -11.7749 86.8492
lradius 31.258
lwrist -5.46249
lhand -16.9939 -26.8242
lfingers 7.12502
lthumb 9.24123 2.95333
rfemur -9.78703 -1.49268 5.38619
rtibia 70.6175
rfoot 1.45218 2.09811
rtoes 20.0438
lfemur 0.0866107 2.8034 -35.261
ltibia 17.25
lfoot -13.5957 6.27995
ltoes -6.85321
